<?xml version="1.0" encoding="UTF-8" standalone="no"?>
<!-- Created with Inkscape (http://www.inkscape.org/) -->

<svg
   width="354.46368"
   height="212.88129"
   viewBox="0 0 93.785181 56.32484"
   version="1.1"
   id="svg1"
   xml:space="preserve"
   inkscape:version="1.4 (86a8ad7, 2024-10-11)"
   sodipodi:docname="rock_paper_scisors.svg"
   xmlns:inkscape="http://www.inkscape.org/namespaces/inkscape"
   xmlns:sodipodi="http://sodipodi.sourceforge.net/DTD/sodipodi-0.dtd"
   xmlns="http://www.w3.org/2000/svg"
   xmlns:svg="http://www.w3.org/2000/svg"><sodipodi:namedview
     id="namedview1"
     pagecolor="#ffffff"
     bordercolor="#000000"
     borderopacity="0.25"
     inkscape:showpageshadow="2"
     inkscape:pageopacity="0.0"
     inkscape:pagecheckerboard="0"
     inkscape:deskcolor="#d1d1d1"
     inkscape:document-units="px"
     showgrid="false"
     showguides="true"
     inkscape:zoom="0.59593048"
     inkscape:cx="320.50718"
     inkscape:cy="461.46322"
     inkscape:window-width="1920"
     inkscape:window-height="991"
     inkscape:window-x="-9"
     inkscape:window-y="-9"
     inkscape:window-maximized="1"
     inkscape:current-layer="layer1"><inkscape:grid
       id="grid2"
       units="mm"
       originx="22.075605"
       originy="-232.78027"
       spacingx="0.26458333"
       spacingy="0.26458334"
       empcolor="#0099e5"
       empopacity="0.30196078"
       color="#0099e5"
       opacity="0.14901961"
       empspacing="5"
       enabled="true"
       visible="false" /><inkscape:page
       x="0"
       y="0"
       width="93.785179"
       height="56.324841"
       id="page2"
       margin="0"
       bleed="0" /></sodipodi:namedview><defs
     id="defs1" /><g
     inkscape:label="Layer 1"
     inkscape:groupmode="layer"
     id="layer1"
     transform="translate(22.075606,-232.78027)"><g
       id="g66"
       inkscape:export-filename="p_p"
       inkscape:export-xdpi="11.273889"
       inkscape:export-ydpi="11.273889"><rect
         style="fill:#cccccc;stroke:none;stroke-width:2.11667;stroke-linecap:round;stroke-linejoin:round;stroke-dasharray:none;paint-order:stroke fill markers"
         id="rect43"
         width="56.324837"
         height="56.324837"
         x="15.384742"
         y="232.78029"
         ry="28.162418" /><rect
         style="fill:#cccccc;stroke:none;stroke-width:2.11667;stroke-linecap:round;stroke-linejoin:round;stroke-dasharray:none;paint-order:stroke fill markers"
         id="rect27"
         width="56.324837"
         height="56.324837"
         x="-22.075607"
         y="232.78029"
         ry="28.162418" /><path
         id="path30"
         style="fill:#ececec;stroke:#999999;stroke-width:2.11667;stroke-linecap:round;stroke-linejoin:round;stroke-dasharray:none;paint-order:fill markers stroke"
         d="m 8.22432,264.85033 -1.46954,4.40862 0.0668,3.54026 m 7.08051,-5.61097 7.14731,-3.07268 5.81136,-4.54222 3.74065,2.07072 -0.0668,3.07267 -6.67973,5.81137 -9.61881,11.08835 -10.21999,2.80549 -9.552012,-2.4047 -5.477379,-13.35946 -7.414501,-17.03332 2.00392,-2.7387 2.605095,0.60118 6.946915,9.61882 -3.80744,-17.10012 2.20431,-3.20627 2.80548,0.1336 1.669943,1.06876 5.477379,17.30051 0.20039,-18.16888 2.73869,-1.66993 3.87424,3.20627 0.73477,17.36731 4.80941,-17.76809 3.94104,-1.33595 2.00392,3.87424 -3.00588,15.49699 -0.20039,7.54809" /><path
         id="path43"
         style="fill:#ececec;stroke:#999999;stroke-width:2.11667;stroke-linecap:round;stroke-linejoin:round;stroke-dasharray:none;paint-order:fill markers stroke"
         d="m 45.68467,264.85033 -1.46954,4.40862 0.0668,3.54026 m 7.08051,-5.61097 7.14731,-3.07268 5.81136,-4.54222 3.74065,2.07072 -0.0668,3.07267 -6.67973,5.81137 -9.61881,11.08835 -10.21999,2.80549 -9.552012,-2.4047 -5.477379,-13.35946 -7.414501,-17.03332 2.00392,-2.7387 2.605095,0.60118 6.946915,9.61882 -3.80744,-17.10012 2.20431,-3.20627 2.80548,0.1336 1.669943,1.06876 5.477379,17.30051 0.20039,-18.16888 2.73869,-1.66993 3.87424,3.20627 0.73477,17.36731 4.80941,-17.76809 3.94104,-1.33595 2.00392,3.87424 -3.00588,15.49699 -0.20039,7.54809" /></g><g
       id="g72"
       inkscape:label="stars"
       transform="translate(35.394464,248.65199)"><path
         sodipodi:type="star"
         style="fill:#ffff00;stroke:#1a1a1a;stroke-width:5.33166;stroke-linecap:round;stroke-linejoin:round;stroke-dasharray:none;paint-order:fill markers stroke"
         id="three_victories"
         inkscape:flatsided="false"
         sodipodi:sides="5"
         sodipodi:cx="-112.04657"
         sodipodi:cy="-129.13168"
         sodipodi:r1="29.445213"
         sodipodi:r2="11.778085"
         sodipodi:arg1="-1.5707963"
         sodipodi:arg2="-0.9424778"
         inkscape:rounded="0"
         inkscape:randomized="0"
         d="m -112.04657,-158.5769 6.92298,19.91655 21.081082,0.4296 -16.802442,12.73869 6.105842,20.18206 -17.307462,-12.0436 -17.30746,12.04359 6.10584,-20.18204 -16.80244,-12.73871 21.08108,-0.42959 z"
         inkscape:transform-center-y="-1.1162714"
         transform="matrix(0.39699993,0,0,0.39699993,33.905002,53.052352)"
         inkscape:label="three_victories" /><path
         sodipodi:type="star"
         style="fill:#ffff00;stroke:#1a1a1a;stroke-width:5.33166;stroke-linecap:round;stroke-linejoin:round;stroke-dasharray:none;paint-order:fill markers stroke"
         id="two_victories"
         inkscape:flatsided="false"
         sodipodi:sides="5"
         sodipodi:cx="-112.04657"
         sodipodi:cy="-129.13168"
         sodipodi:r1="29.445213"
         sodipodi:r2="11.778085"
         sodipodi:arg1="-1.5707963"
         sodipodi:arg2="-0.9424778"
         inkscape:rounded="0"
         inkscape:randomized="0"
         d="m -112.04657,-158.5769 6.92298,19.91655 21.081082,0.4296 -16.802442,12.73869 6.105842,20.18206 -17.307462,-12.0436 -17.30746,12.04359 6.10584,-20.18204 -16.80244,-12.73871 21.08108,-0.42959 z"
         inkscape:transform-center-y="-1.1162714"
         transform="matrix(0.39699993,0,0,0.39699993,33.905002,76.292111)"
         inkscape:label="two_victories" /></g></g></svg>
