<?xml version="1.0" encoding="UTF-8" standalone="no"?>
<!-- Created with Inkscape (http://www.inkscape.org/) -->

<svg
   width="354.46368"
   height="212.88129"
   viewBox="0 0 93.785181 56.32484"
   version="1.1"
   id="svg1"
   xml:space="preserve"
   inkscape:version="1.4 (86a8ad7, 2024-10-11)"
   sodipodi:docname="rock_paper_scisors.svg"
   xmlns:inkscape="http://www.inkscape.org/namespaces/inkscape"
   xmlns:sodipodi="http://sodipodi.sourceforge.net/DTD/sodipodi-0.dtd"
   xmlns="http://www.w3.org/2000/svg"
   xmlns:svg="http://www.w3.org/2000/svg"><sodipodi:namedview
     id="namedview1"
     pagecolor="#ffffff"
     bordercolor="#000000"
     borderopacity="0.25"
     inkscape:showpageshadow="2"
     inkscape:pageopacity="0.0"
     inkscape:pagecheckerboard="0"
     inkscape:deskcolor="#d1d1d1"
     inkscape:document-units="px"
     showgrid="false"
     showguides="true"
     inkscape:zoom="0.59593048"
     inkscape:cx="320.50718"
     inkscape:cy="461.46322"
     inkscape:window-width="1920"
     inkscape:window-height="991"
     inkscape:window-x="-9"
     inkscape:window-y="-9"
     inkscape:window-maximized="1"
     inkscape:current-layer="layer1"><inkscape:grid
       id="grid2"
       units="mm"
       originx="-98.402275"
       originy="-173.36945"
       spacingx="0.26458333"
       spacingy="0.26458334"
       empcolor="#0099e5"
       empopacity="0.30196078"
       color="#0099e5"
       opacity="0.14901961"
       empspacing="5"
       enabled="true"
       visible="false" /><inkscape:page
       x="0"
       y="0"
       width="93.785179"
       height="56.324841"
       id="page2"
       margin="0"
       bleed="0" /></sodipodi:namedview><defs
     id="defs1" /><g
     inkscape:label="Layer 1"
     inkscape:groupmode="layer"
     id="layer1"
     transform="translate(-98.402276,-173.36944)"><g
       id="g68"
       inkscape:export-filename="r_r"
       inkscape:export-xdpi="11.273889"
       inkscape:export-ydpi="11.273889"><rect
         style="fill:#cccccc;stroke:none;stroke-width:2.11667;stroke-linecap:round;stroke-linejoin:round;stroke-dasharray:none;paint-order:stroke fill markers"
         id="rect41"
         width="56.324837"
         height="56.324837"
         x="135.86263"
         y="173.36945"
         ry="28.162418" /><rect
         style="fill:#cccccc;stroke:none;stroke-width:2.11667;stroke-linecap:round;stroke-linejoin:round;stroke-dasharray:none;paint-order:stroke fill markers"
         id="rect26"
         width="56.324837"
         height="56.324837"
         x="98.402275"
         y="173.36945"
         ry="28.162418" /><g
         id="g29"
         transform="translate(-41.55775,130.25944)"
         style="fill:#ececec;stroke:#999999"><path
           style="fill:#ececec;stroke:#999999;stroke-width:2.11667;stroke-linecap:round;stroke-linejoin:round;stroke-dasharray:none;paint-order:fill markers stroke"
           d="m 158.58141,62.36904 9.38123,3.444878 1.71848,7.749291 -3.25906,7.510021 -11.33589,-5.526241 -1.60592,-4.912209 z"
           id="path28" /><path
           id="path29"
           style="fill:#ececec;stroke:#999999;stroke-width:2.11667;stroke-linecap:round;stroke-linejoin:round;stroke-dasharray:none;paint-order:fill markers stroke"
           d="m 177.09668,59.10996 -0.51957,4.86499 m -10.15505,17.09828 3.25906,-7.51002 m -11.09971,-11.19417 2.97567,12.2333 3.35353,1.32251 2.5978,-0.75572 1.41699,-1.65315 m -0.95992,-7.67933 -0.83493,-6.67945 m -13.6503,11.47758 1.60592,4.91221 4.0148,0.66126 2.50334,-1.74761 v 0 m 13.22519,-1.65315 -8.6436,0.99189 -2.50335,-6.14027 10.62739,-4.58158 11.33588,6.61259 -1.32252,9.96612 -9.11594,8.50191 -7.03769,-1.41698 -7.08492,1.84208 -6.84877,-7.27386 -3.49523,-8.31297 -0.1417,-10.20229 2.92844,-5.05392 4.06203,0.85019 3.77862,-3.25906 4.77052,0.94465 5.29008,-2.31441 5.85687,2.21995 4.48712,-0.99189 3.63693,3.25906 -2.50335,9.44657" /></g><g
         id="g42"
         transform="translate(-4.0974,130.25944)"
         style="fill:#ececec;stroke:#999999"><path
           style="fill:#ececec;stroke:#999999;stroke-width:2.11667;stroke-linecap:round;stroke-linejoin:round;stroke-dasharray:none;paint-order:fill markers stroke"
           d="m 158.58141,62.36904 9.38123,3.444878 1.71848,7.749291 -3.25906,7.510021 -11.33589,-5.526241 -1.60592,-4.912209 z"
           id="path41" /><path
           id="path42"
           style="fill:#ececec;stroke:#999999;stroke-width:2.11667;stroke-linecap:round;stroke-linejoin:round;stroke-dasharray:none;paint-order:fill markers stroke"
           d="m 177.09668,59.10996 -0.51957,4.86499 m -10.15505,17.09828 3.25906,-7.51002 m -11.09971,-11.19417 2.97567,12.2333 3.35353,1.32251 2.5978,-0.75572 1.41699,-1.65315 m -0.95992,-7.67933 -0.83493,-6.67945 m -13.6503,11.47758 1.60592,4.91221 4.0148,0.66126 2.50334,-1.74761 v 0 m 13.22519,-1.65315 -8.6436,0.99189 -2.50335,-6.14027 10.62739,-4.58158 11.33588,6.61259 -1.32252,9.96612 -9.11594,8.50191 -7.03769,-1.41698 -7.08492,1.84208 -6.84877,-7.27386 -3.49523,-8.31297 -0.1417,-10.20229 2.92844,-5.05392 4.06203,0.85019 3.77862,-3.25906 4.77052,0.94465 5.29008,-2.31441 5.85687,2.21995 4.48712,-0.99189 3.63693,3.25906 -2.50335,9.44657" /></g></g><g
       id="g72"
       inkscape:label="stars"
       transform="translate(155.87235,189.24114)"
       inkscape:export-filename="paper_paper_tie.svg"
       inkscape:export-xdpi="11.273889"
       inkscape:export-ydpi="11.273889"><path
         sodipodi:type="star"
         style="fill:#ffff00;stroke:#1a1a1a;stroke-width:5.33166;stroke-linecap:round;stroke-linejoin:round;stroke-dasharray:none;paint-order:fill markers stroke"
         id="three_victories"
         inkscape:flatsided="false"
         sodipodi:sides="5"
         sodipodi:cx="-112.04657"
         sodipodi:cy="-129.13168"
         sodipodi:r1="29.445213"
         sodipodi:r2="11.778085"
         sodipodi:arg1="-1.5707963"
         sodipodi:arg2="-0.9424778"
         inkscape:rounded="0"
         inkscape:randomized="0"
         d="m -112.04657,-158.5769 6.92298,19.91655 21.081082,0.4296 -16.802442,12.73869 6.105842,20.18206 -17.307462,-12.0436 -17.30746,12.04359 6.10584,-20.18204 -16.80244,-12.73871 21.08108,-0.42959 z"
         inkscape:transform-center-y="-1.1162714"
         transform="matrix(0.39699993,0,0,0.39699993,33.905002,53.052352)"
         inkscape:label="three_victories" /><path
         sodipodi:type="star"
         style="fill:#ffff00;stroke:#1a1a1a;stroke-width:5.33166;stroke-linecap:round;stroke-linejoin:round;stroke-dasharray:none;paint-order:fill markers stroke"
         id="two_victories"
         inkscape:flatsided="false"
         sodipodi:sides="5"
         sodipodi:cx="-112.04657"
         sodipodi:cy="-129.13168"
         sodipodi:r1="29.445213"
         sodipodi:r2="11.778085"
         sodipodi:arg1="-1.5707963"
         sodipodi:arg2="-0.9424778"
         inkscape:rounded="0"
         inkscape:randomized="0"
         d="m -112.04657,-158.5769 6.92298,19.91655 21.081082,0.4296 -16.802442,12.73869 6.105842,20.18206 -17.307462,-12.0436 -17.30746,12.04359 6.10584,-20.18204 -16.80244,-12.73871 21.08108,-0.42959 z"
         inkscape:transform-center-y="-1.1162714"
         transform="matrix(0.39699993,0,0,0.39699993,33.905002,76.292111)"
         inkscape:label="two_victories" /></g></g></svg>
