<?xml version="1.0" encoding="UTF-8" standalone="no"?>
<!-- Created with Inkscape (http://www.inkscape.org/) -->

<svg
   width="354.46375"
   height="212.88129"
   viewBox="0 0 93.785197 56.32484"
   version="1.1"
   id="svg1"
   xml:space="preserve"
   inkscape:version="1.4 (86a8ad7, 2024-10-11)"
   sodipodi:docname="rock_paper_scisors.svg"
   xmlns:inkscape="http://www.inkscape.org/namespaces/inkscape"
   xmlns:sodipodi="http://sodipodi.sourceforge.net/DTD/sodipodi-0.dtd"
   xmlns="http://www.w3.org/2000/svg"
   xmlns:svg="http://www.w3.org/2000/svg"><sodipodi:namedview
     id="namedview1"
     pagecolor="#ffffff"
     bordercolor="#000000"
     borderopacity="0.25"
     inkscape:showpageshadow="2"
     inkscape:pageopacity="0.0"
     inkscape:pagecheckerboard="0"
     inkscape:deskcolor="#d1d1d1"
     inkscape:document-units="px"
     showgrid="false"
     showguides="true"
     inkscape:zoom="0.59593048"
     inkscape:cx="320.50718"
     inkscape:cy="461.46322"
     inkscape:window-width="1920"
     inkscape:window-height="991"
     inkscape:window-x="-9"
     inkscape:window-y="-9"
     inkscape:window-maximized="1"
     inkscape:current-layer="layer1"><inkscape:grid
       id="grid2"
       units="mm"
       originx="-98.498505"
       originy="-240.10349"
       spacingx="0.26458333"
       spacingy="0.26458334"
       empcolor="#0099e5"
       empopacity="0.30196078"
       color="#0099e5"
       opacity="0.14901961"
       empspacing="5"
       enabled="true"
       visible="false" /><inkscape:page
       x="0"
       y="0"
       width="93.785194"
       height="56.324841"
       id="page2"
       margin="0"
       bleed="0" /></sodipodi:namedview><defs
     id="defs1" /><g
     inkscape:label="Layer 1"
     inkscape:groupmode="layer"
     id="layer1"
     transform="translate(-98.498506,-240.10348)"><g
       id="g67"
       inkscape:export-filename="s_s.svg"
       inkscape:export-xdpi="11.273889"
       inkscape:export-ydpi="11.273889"><rect
         style="fill:#cccccc;stroke:none;stroke-width:2.11667;stroke-linecap:round;stroke-linejoin:round;stroke-dasharray:none;paint-order:stroke fill markers"
         id="rect44"
         width="56.324837"
         height="56.324837"
         x="135.95886"
         y="240.10349"
         ry="28.162418" /><rect
         style="fill:#cccccc;stroke:none;stroke-width:2.11667;stroke-linecap:round;stroke-linejoin:round;stroke-dasharray:none;paint-order:stroke fill markers"
         id="rect28"
         width="56.324837"
         height="56.324837"
         x="98.498512"
         y="240.10349"
         ry="28.162418" /><g
         id="g32"
         transform="translate(81.79682,196.99349)"
         style="fill:#ececec;stroke:#999999"><path
           style="fill:#ececec;stroke:#999999;stroke-width:2.11667;stroke-linecap:round;stroke-linejoin:round;stroke-dasharray:none;paint-order:fill markers stroke"
           d="m 33.909349,77.150568 6.647532,-7.278317 11.120559,4.339235 -0.868371,9.485222 -1.803529,2.07072 -15.764161,1.235744 z"
           id="path31" /><path
           id="path32"
           style="fill:#ececec;stroke:#999999;stroke-width:2.11667;stroke-linecap:round;stroke-linejoin:round;stroke-dasharray:none;paint-order:fill markers stroke"
           d="m 41.45745,73.142737 -6.34575,-23.045072 2.87229,-4.07464 5.21019,2.27111 4.20823,20.039192 2.93908,0.53438 4.14143,-19.571612 4.74261,-1.40274 3.40666,4.40862 -6.81332,26.652122 m -18.43606,4.74261 -1.00195,1.40274 -1.93713,0.93517 -2.87228,-0.2004 -4.475422,-6.81332 0.86837,-3.94104 4.876202,-0.80157 1.93712,-4.34182 6.01176,-0.0668 m 3.60705,11.62273 -1.33595,2.60509 -2.2711,0.73477 -3.20627,-0.60117 -3.67386,-7.08052 m 15.09619,8.61686 1.80353,-2.07072 -0.66797,-2.27111 -5.87816,-0.13359 -1.80353,-4.74261 9.21803,-2.33791 8.61685,9.68561 -7.14731,12.15711 -7.4145,-1.26915 -6.41254,1.73673 -6.14536,-8.34966 0.1336,-2.33791" /></g><g
         id="g45"
         transform="translate(119.25717,196.99349)"
         style="fill:#ececec;stroke:#999999"><path
           style="fill:#ececec;stroke:#999999;stroke-width:2.11667;stroke-linecap:round;stroke-linejoin:round;stroke-dasharray:none;paint-order:fill markers stroke"
           d="m 33.909349,77.150568 6.647532,-7.278317 11.120559,4.339235 -0.868371,9.485222 -1.803529,2.07072 -15.764161,1.235744 z"
           id="path44" /><path
           id="path45"
           style="fill:#ececec;stroke:#999999;stroke-width:2.11667;stroke-linecap:round;stroke-linejoin:round;stroke-dasharray:none;paint-order:fill markers stroke"
           d="m 41.45745,73.142737 -6.34575,-23.045072 2.87229,-4.07464 5.21019,2.27111 4.20823,20.039192 2.93908,0.53438 4.14143,-19.571612 4.74261,-1.40274 3.40666,4.40862 -6.81332,26.652122 m -18.43606,4.74261 -1.00195,1.40274 -1.93713,0.93517 -2.87228,-0.2004 -4.475422,-6.81332 0.86837,-3.94104 4.876202,-0.80157 1.93712,-4.34182 6.01176,-0.0668 m 3.60705,11.62273 -1.33595,2.60509 -2.2711,0.73477 -3.20627,-0.60117 -3.67386,-7.08052 m 15.09619,8.61686 1.80353,-2.07072 -0.66797,-2.27111 -5.87816,-0.13359 -1.80353,-4.74261 9.21803,-2.33791 8.61685,9.68561 -7.14731,12.15711 -7.4145,-1.26915 -6.41254,1.73673 -6.14536,-8.34966 0.1336,-2.33791" /></g></g><g
       id="g72"
       inkscape:label="stars"
       transform="translate(155.96858,255.97518)"
       inkscape:export-filename="rock_rock_tie.svg"
       inkscape:export-xdpi="11.273889"
       inkscape:export-ydpi="11.273889"><path
         sodipodi:type="star"
         style="fill:#ffff00;stroke:#1a1a1a;stroke-width:5.33166;stroke-linecap:round;stroke-linejoin:round;stroke-dasharray:none;paint-order:fill markers stroke"
         id="three_victories"
         inkscape:flatsided="false"
         sodipodi:sides="5"
         sodipodi:cx="-112.04657"
         sodipodi:cy="-129.13168"
         sodipodi:r1="29.445213"
         sodipodi:r2="11.778085"
         sodipodi:arg1="-1.5707963"
         sodipodi:arg2="-0.9424778"
         inkscape:rounded="0"
         inkscape:randomized="0"
         d="m -112.04657,-158.5769 6.92298,19.91655 21.081082,0.4296 -16.802442,12.73869 6.105842,20.18206 -17.307462,-12.0436 -17.30746,12.04359 6.10584,-20.18204 -16.80244,-12.73871 21.08108,-0.42959 z"
         inkscape:transform-center-y="-1.1162714"
         transform="matrix(0.39699993,0,0,0.39699993,33.905002,53.052352)"
         inkscape:label="three_victories" /><path
         sodipodi:type="star"
         style="fill:#ffff00;stroke:#1a1a1a;stroke-width:5.33166;stroke-linecap:round;stroke-linejoin:round;stroke-dasharray:none;paint-order:fill markers stroke"
         id="two_victories"
         inkscape:flatsided="false"
         sodipodi:sides="5"
         sodipodi:cx="-112.04657"
         sodipodi:cy="-129.13168"
         sodipodi:r1="29.445213"
         sodipodi:r2="11.778085"
         sodipodi:arg1="-1.5707963"
         sodipodi:arg2="-0.9424778"
         inkscape:rounded="0"
         inkscape:randomized="0"
         d="m -112.04657,-158.5769 6.92298,19.91655 21.081082,0.4296 -16.802442,12.73869 6.105842,20.18206 -17.307462,-12.0436 -17.30746,12.04359 6.10584,-20.18204 -16.80244,-12.73871 21.08108,-0.42959 z"
         inkscape:transform-center-y="-1.1162714"
         transform="matrix(0.39699993,0,0,0.39699993,33.905002,76.292111)"
         inkscape:label="two_victories" /></g></g></svg>
